# xmcd
#
# Track frame offsets:
#	150
#	14041
#	28695
#	41556
#	61908
#	77554
#	90810
#	105364
#	118963
#	132224
#	147478
#	161982
#	176681
#	191849
#	205363
#
# Disc length: 2915 seconds
#
# Revision: 1
# Processed by: cddbd v1.5.2PL0 Copyright (c) Steve Scherf et al.
# Submitted via: audiograbber 1.83.01
#
DISCID=d20b610f
DTITLE=Truck Stop - Das große Jubiläum - 10 - Unsere lustigsten Songs
DYEAR=2018
DGENRE=Country
TTITLE0=Ich bin ein norddeutsches Rindvieh
TTITLE1=Wir machen aus dem Vater Rhein 'ne Pipeline
TTITLE2=Sagt'n Cowboy Howdy, Howdy
TTITLE3=Der Fananruf
TTITLE4=Radieschen
TTITLE5=Kudd'l von'ne Küste
TTITLE6=Textil des Grauens
TTITLE7=Ju kän Denglisch
TTITLE8=Bei uns in Stade
TTITLE9=Mama steht auf Jesus
TTITLE10=Sieht sie 'nen Cowboy
TTITLE11=Alle meine Ex-Frau'n
TTITLE12=Alle machen's
TTITLE13=Die Rechnung bitte
TTITLE14=Oh Mann, oh Mann
EXTD=
EXTT0=
EXTT1=
EXTT2=
EXTT3=
EXTT4=
EXTT5=
EXTT6=
EXTT7=
EXTT8=
EXTT9=
EXTT10=
EXTT11=
EXTT12=
EXTT13=
EXTT14=
PLAYORDER=
